<svg xmlns="http://www.w3.org/2000/svg" xmlns:xlink="http://www.w3.org/1999/xlink" width="172.106" height="55.062" viewBox="0 0 172.106 55.062">
  <defs>
    <clipPath id="clip-path">
      <rect id="Rectangle_25" data-name="Rectangle 25" width="172.106" height="55.062" fill="none"/>
    </clipPath>
  </defs>
  <g id="logo-white" transform="translate(-987.211 -205.019)">
    <g id="Group_16" data-name="Group 16" transform="translate(987.211 205.019)" clip-path="url(#clip-path)">
      <path id="Path_74" data-name="Path 74" d="M993.507,207.025a3.071,3.071,0,0,0-1.739,2.839c0,1.695.661,2.733,3.577,4.324,4.337,2.354,5.316,5.606,5.316,8.789,0,5.364-3.16,8.859-6.786,8.963v-2.007a3.233,3.233,0,0,0,2.229-3.184c.048-2.179-1.764-3.08-2.94-3.806-3.087-1.834-5.953-3.806-5.953-9.238,0-5.261,2.694-8.514,6.3-8.686Zm-6.3,16.644c0-.726.1-1.695.783-1.695.492,0,.833.554.906,1.142.343,2.767,1.716,6.194,3.872,6.816v2.007c-2.131-.07-2.6-1.282-3.479-1.282-.785,0-.711,1.142-1.323,1.142-.76,0-.76-1.28-.76-1.453ZM1000,212.493c0,.8-.1,1.661-.808,1.661-.588,0-.808-.658-.883-1.35-.268-2.56-1.788-5.189-3.7-5.779v-2.006c1.543.034,3.184,1.35,3.454,1.35.638,0,.588-1.246,1.224-1.246.76,0,.712,1.176.712,1.453Z" transform="translate(-987.211 -205.019)" fill="#fff"/>
      <path id="Path_75" data-name="Path 75" d="M995.6,205.309h3.527v2.007c-1.273,1.28-1.616,3.563-1.838,5.4-.073.761-.195,1.661-.881,1.661-.735,0-.808-.863-.808-1Zm4.63,0h6v22.007c0,1.28-.025,1.487.833,1.868a.945.945,0,0,1,.54.935.955.955,0,0,1-.908,1.073h-6.932a.955.955,0,0,1-.908-1.073.944.944,0,0,1,.54-.935c.858-.381.833-.588.833-1.868Zm10.632,8.062c0,.139-.073,1-.808,1-.686,0-.808-.9-.883-1.661-.22-1.834-.561-4.117-1.836-5.4v-2.007h3.527Z" transform="translate(-980.605 -204.791)" fill="#fff"/>
      <path id="Path_76" data-name="Path 76" d="M1006.235,209.185c0-1.28.025-1.487-.833-1.868a.943.943,0,0,1-.538-.935.954.954,0,0,1,.906-1.073h6.467v22.007c0,1.28-.023,1.487.833,1.87a.94.94,0,0,1,.54.933.955.955,0,0,1-.906,1.073h-6.934a.954.954,0,0,1-.906-1.073.939.939,0,0,1,.538-.933c.858-.383.833-.59.833-1.87Zm7.106-3.875h.122c1.593,0,3.259-.07,4.73.935,1.641,1.142,2.474,3.044,2.5,5.674.048,3.979-1.814,5.709-4.312,6.541v.068c2.179.45,4.261,1.351,4.312,5.018v3.046c0,.311-.073,1,.245,1,.391,0,.465-1,1.053-1,.318,0,.71.518.71,1a5.177,5.177,0,0,1-1.346,2.873,3.332,3.332,0,0,1-2.769,1.246,3.2,3.2,0,0,1-2.769-1.455,7.5,7.5,0,0,1-.98-4.394V223.51c0-1.591-.025-3.529-1.494-3.738v-2.041c1.323-.173,1.494-1.314,1.494-3.01v-4.186c0-1.73-.27-2.562-1.494-3.184Z" transform="translate(-973.309 -204.791)" fill="#fff"/>
      <path id="Path_77" data-name="Path 77" d="M1022.6,207.025a2.454,2.454,0,0,0-1.249,2.492V227.44a2.453,2.453,0,0,0,1.249,2.492v2.007c-5.193-.658-7.618-6.575-7.618-13.46s2.426-12.8,7.618-13.46Zm1.1,22.907a2.453,2.453,0,0,0,1.249-2.492V209.516a2.454,2.454,0,0,0-1.249-2.492v-2.006c5.195.658,7.62,6.575,7.62,13.46s-2.426,12.8-7.62,13.46Z" transform="translate(-965.343 -205.019)" fill="#fff"/>
      <path id="Path_78" data-name="Path 78" d="M1026.86,211.815h.05l1.373,3.459v10.45c.391,4.326,1.959,2.976,1.959,4.464,0,1.073-1,1-1.275,1h-2.792c-.27,0-1.275.068-1.275-1,0-1.487,1.568-.138,1.959-4.464Zm12.765,11v8.375h-3.65l-8.966-21.835c-.393-.969-.515-1.487-1.323-1.868a1.014,1.014,0,0,1-.736-1.108c0-1.037.736-1.037,1.25-1.073h6.3Zm-1.421-11.245c0-4.948-2.009-3.632-2.009-5.225a.971.971,0,0,1,1.055-1.039h3.332a.971.971,0,0,1,1.053,1.039c0,1.593-2.009.277-2.009,5.225v8.409h-.048l-1.373-3.495Z" transform="translate(-957.529 -204.791)" fill="#fff"/>
      <path id="Path_79" data-name="Path 79" d="M1041.414,226.748c0,1.246.195,2.7,1.176,3.184v2.007c-4.263-.173-7.547-6.056-7.547-13.46,0-7.44,3.284-13.323,7.547-13.46v2.007c-.982.484-1.176,1.9-1.176,3.148Zm2.277,3.184a2.183,2.183,0,0,0,1.126-2.215V221.49c0-.761-.025-.935-1-1.176a.968.968,0,0,1-.638-1.039.928.928,0,0,1,.98-.969h5.856c.123,0,.858-.1.858,1.039a1.244,1.244,0,0,1-.441,1.039,1.134,1.134,0,0,0-.442,1.037v6.852a8.675,8.675,0,0,1-6.3,3.668Zm0-24.913a14.2,14.2,0,0,1,4.165,1.28c.734,0,.661-1.28,1.446-1.28.735,0,.685.935.685,1.108v7.715c0,.173,0,1.246-.76,1.246-.636,0-.808-.658-.929-1.384-.76-4.43-2.622-6.541-4.607-6.678Z" transform="translate(-949.541 -205.019)" fill="#fff"/>
      <path id="Path_80" data-name="Path 80" d="M1052.408,227.316c0,1.282-.025,1.487.833,1.87a.94.94,0,0,1,.54.933.954.954,0,0,1-.906,1.073h-6.934a.953.953,0,0,1-.906-1.073.937.937,0,0,1,.54-.933c.856-.383.831-.588.831-1.87V209.184c0-1.28.025-1.487-.831-1.868a.94.94,0,0,1-.54-.935.954.954,0,0,1,.906-1.073h6.934a.955.955,0,0,1,.906,1.073.943.943,0,0,1-.54.935c-.858.381-.833.588-.833,1.868Zm3.259-8.269h-2.156v-2.007h2.156v-7.855c0-1.28.025-1.487-.833-1.868a.943.943,0,0,1-.54-.935.955.955,0,0,1,.908-1.073h6.932a.954.954,0,0,1,.906,1.073.942.942,0,0,1-.538.935c-.858.381-.833.588-.833,1.868v18.131c0,1.282-.025,1.487.833,1.87a.939.939,0,0,1,.538.933.953.953,0,0,1-.906,1.073H1055.2a.954.954,0,0,1-.908-1.073.94.94,0,0,1,.54-.933c.858-.383.833-.588.833-1.87Z" transform="translate(-941.673 -204.791)" fill="#fff"/>
      <path id="Path_81" data-name="Path 81" d="M1063.8,207.025a2.457,2.457,0,0,0-1.25,2.492V227.44a2.455,2.455,0,0,0,1.25,2.492v2.007c-5.193-.658-7.619-6.575-7.619-13.46s2.426-12.8,7.619-13.46Zm1.1,22.907a2.453,2.453,0,0,0,1.25-2.492V209.516a2.454,2.454,0,0,0-1.25-2.492v-2.006c5.195.658,7.619,6.575,7.619,13.46s-2.424,12.8-7.619,13.46Z" transform="translate(-932.897 -205.019)" fill="#fff"/>
      <path id="Path_82" data-name="Path 82" d="M1073.542,231.192h-6.467a.954.954,0,0,1-.906-1.073.943.943,0,0,1,.538-.935c.858-.381.835-.588.835-1.868V209.185c0-1.282.023-1.489-.835-1.87a.94.94,0,0,1-.538-.935.954.954,0,0,1,.906-1.073h6.934a.955.955,0,0,1,.906,1.073.941.941,0,0,1-.54.935c-.856.381-.833.588-.833,1.87Zm1.1-2.007c1.984-.381,3.111-2.8,3.625-6.02.123-.761.417-.969.931-.969.563,0,.613.658.613,1.316v7.681h-5.17Z" transform="translate(-925.029 -204.791)" fill="#fff"/>
      <path id="Path_83" data-name="Path 83" d="M1081.532,231.191h-6.222c-.538,0-1.151-.07-1.151-1.073a.939.939,0,0,1,.538-.933c.858-.383.833-.59.833-1.87V209.185c0-.518.05-1.453-.417-1.661-.49-.243-.955-.347-.955-1.212,0-.9.613-1,1.1-1h6.271Zm1.1-25.882c4.165-.07,7.644,4.013,7.938,12.942.268,8.13-3.872,12.94-7.938,12.94v-2.006c1.494-.277,1.568-2.251,1.568-3.564v-14.74c0-1.316-.073-3.287-1.568-3.564Z" transform="translate(-918.736 -204.791)" fill="#fff"/>
      <path id="Path_84" data-name="Path 84" d="M1019.9,223a4.349,4.349,0,0,1,2.327.157,2.761,2.761,0,0,1,1.344,1.09,3.149,3.149,0,0,1,.456,1.612,4.293,4.293,0,0,1-.309,1.707,3.84,3.84,0,0,1-.983,1.407,2.623,2.623,0,0,1-1.527.7,2.4,2.4,0,0,1-1.526-.206,2.214,2.214,0,0,1-.837-.76,1.029,1.029,0,0,1-.163-.788.451.451,0,0,1,.49-.365,1.364,1.364,0,0,0,.854-.268,3.82,3.82,0,0,0,.837-.758,4.373,4.373,0,0,0,.618-.981,2.1,2.1,0,0,0,.218-.947.9.9,0,0,0-.363-.7,1.684,1.684,0,0,0-1.146-.206,5.2,5.2,0,0,0-2.054.838,9.936,9.936,0,0,0-1.947,1.689,11.8,11.8,0,0,0-1.6,2.292,10.918,10.918,0,0,0-1.019,2.64,8.7,8.7,0,0,0-.254,2.544,4.516,4.516,0,0,0,.527,1.959,2.816,2.816,0,0,0,1.217,1.185,2.909,2.909,0,0,0,1.782.222,7.232,7.232,0,0,0,2.217-.774,8.336,8.336,0,0,0,2.363-2.165,2.991,2.991,0,0,1,.565-.538,1.059,1.059,0,0,1,.418-.206c.1-.011.138.048.127.173a1.675,1.675,0,0,1-.274.6,11.966,11.966,0,0,1-1.417,1.8,14.113,14.113,0,0,1-1.782,1.6,11.781,11.781,0,0,1-1.963,1.2,7.4,7.4,0,0,1-1.963.649,4.22,4.22,0,0,1-2.383-.159,3.285,3.285,0,0,1-1.582-1.359,5.079,5.079,0,0,1-.672-2.356,8.918,8.918,0,0,1,.418-3.112,13.893,13.893,0,0,1,1.418-3.319,15.707,15.707,0,0,1,2.163-2.89,13.373,13.373,0,0,1,2.619-2.15A7.152,7.152,0,0,1,1019.9,223" transform="translate(-968.879 -190.919)" fill="#fff"/>
      <path id="Path_85" data-name="Path 85" d="M1028.176,228.527q.365-.41.583-.268t-.073.585a1.493,1.493,0,0,1-.636.458,3.578,3.578,0,0,1-.946.238,6.993,6.993,0,0,1-2.272-.127c-.025.232-.054.463-.091.7a6.1,6.1,0,0,1-.163.728,8.1,8.1,0,0,1-.892,2.07,9.885,9.885,0,0,1-1.362,1.786,8.667,8.667,0,0,1-1.618,1.326,4.861,4.861,0,0,1-1.727.7,2.738,2.738,0,0,1-1.51-.095,2,2,0,0,1-1-.853,3.191,3.191,0,0,1-.418-1.469,5.594,5.594,0,0,1,.272-1.945,8.157,8.157,0,0,1,.892-2.07,9.983,9.983,0,0,1,1.364-1.786,9.165,9.165,0,0,1,1.618-1.342,4.721,4.721,0,0,1,1.727-.711,2.348,2.348,0,0,1,2,.411,2.694,2.694,0,0,1,.908,1.834,4.286,4.286,0,0,0,.928.22,5.861,5.861,0,0,0,.964.048,4.505,4.505,0,0,0,.872-.111,1.031,1.031,0,0,0,.581-.316m-4.435,1.991a3.58,3.58,0,0,0,.145-.7,6.218,6.218,0,0,0,.037-.663,3.242,3.242,0,0,1-1.437-.871.935.935,0,0,1-.2-1.121h-.218a2.733,2.733,0,0,0-1.126.425,4.956,4.956,0,0,0-1.072.917,7.2,7.2,0,0,0-.89,1.264,6.82,6.82,0,0,0-.618,1.469,4.6,4.6,0,0,0-.2,1.409,2.522,2.522,0,0,0,.254,1.1,1.534,1.534,0,0,0,.654.679,1.619,1.619,0,0,0,.964.159,3.2,3.2,0,0,0,1.128-.458,5.356,5.356,0,0,0,1.09-.919,6.241,6.241,0,0,0,.89-1.248,6.971,6.971,0,0,0,.6-1.453" transform="translate(-964.504 -188.193)" fill="#fff"/>
      <path id="Path_86" data-name="Path 86" d="M1030.961,236.753q-.909,0-1.09-.617a2.808,2.808,0,0,1,.072-1.532,14.922,14.922,0,0,1,.728-1.991q.472-1.075.872-1.991a9.274,9.274,0,0,0,.545-1.532c.1-.411.013-.617-.254-.617a1.161,1.161,0,0,0-.672.4,7.114,7.114,0,0,0-.89,1.058q-.475.665-1,1.532c-.35.581-.685,1.185-1,1.818q-.547,1.2-.928,2.054c-.254.57-.406.906-.454,1.012a.791.791,0,0,1-.492.3,2.4,2.4,0,0,1-.781.095,1.457,1.457,0,0,1-.654-.157c-.17-.095-.195-.249-.073-.459.023-.063.109-.257.255-.583s.315-.722.51-1.187.411-.974.654-1.532.472-1.1.69-1.628q.254-.568.472-1.058a5.265,5.265,0,0,0,.309-.854,1.521,1.521,0,0,0,.055-.583.234.234,0,0,0-.254-.222q-.327,0-.874.585a11.923,11.923,0,0,0-1.164,1.518q-.617.93-1.253,2.1t-1.146,2.34l-.254.631v.032l-.182.379a1.071,1.071,0,0,1-.618.506,2.447,2.447,0,0,1-.837.157,1.223,1.223,0,0,1-.654-.157c-.17-.105-.193-.273-.072-.506q.107-.22.381-.9t.654-1.6c.256-.611.515-1.264.783-1.959s.526-1.359.781-1.991.472-1.185.654-1.659.309-.806.381-1a.715.715,0,0,1,.492-.442,2.006,2.006,0,0,1,.783-.1,1.589,1.589,0,0,1,.672.191.3.3,0,0,1,.162.411c-.195.484-.411,1.037-.654,1.659s-.5,1.269-.763,1.943q.544-.853,1.128-1.612a12.187,12.187,0,0,1,1.181-1.342,6.218,6.218,0,0,1,1.162-.917,2.173,2.173,0,0,1,1.11-.332,1.28,1.28,0,0,1,.817.222.861.861,0,0,1,.309.617,2.575,2.575,0,0,1-.109.917,9.486,9.486,0,0,1-.4,1.121,12.634,12.634,0,0,1,1.854-2.054,2.806,2.806,0,0,1,1.78-.822c.656,0,1.024.216,1.11.649a3.224,3.224,0,0,1-.2,1.612,15.2,15.2,0,0,1-.91,2.086q-.582,1.121-1.017,2.084a6.211,6.211,0,0,0-.527,1.612q-.091.649.563.649a2.6,2.6,0,0,0,1.582-.76,8.69,8.69,0,0,0,1.618-1.864c.243-.358.456-.5.637-.425s.175.3-.018.679a6.705,6.705,0,0,1-.964,1.342,10.425,10.425,0,0,1-1.418,1.312,8.123,8.123,0,0,1-1.636.98,3.883,3.883,0,0,1-1.546.379" transform="translate(-961.034 -188.171)" fill="#fff"/>
      <path id="Path_87" data-name="Path 87" d="M1040.935,232.5c.266-.336.5-.468.69-.4s.182.29-.036.649q-.182.284-.69.931a7.541,7.541,0,0,1-1.455,1.344,9.451,9.451,0,0,1-2.381,1.216,10.071,10.071,0,0,1-3.436.522,1.694,1.694,0,0,1-1.419-.474.278.278,0,0,1-.107-.286.578.578,0,0,1,.163-.284.572.572,0,0,1,.291-.157.409.409,0,0,1,.309.064,1.007,1.007,0,0,0,.545.157,2.226,2.226,0,0,0,1.144-.647,8.66,8.66,0,0,0,1.237-1.455,17.326,17.326,0,0,0,1.126-1.881,12.371,12.371,0,0,0,.819-1.911,5.16,5.16,0,0,0,.291-1.55q0-.649-.436-.774a1.169,1.169,0,0,0-1,.316,7.914,7.914,0,0,0-1.237,1.169,15,15,0,0,0-1.237,1.643,16.186,16.186,0,0,0-1,1.739q-.654,1.644-1.346,3.366T1030.5,239q-.582,1.469-1,2.481t-.528,1.232a.869.869,0,0,1-.545.411,2.7,2.7,0,0,1-.819.127,1.379,1.379,0,0,1-.672-.143.28.28,0,0,1-.145-.4c.073-.147.266-.606.581-1.375s.692-1.7,1.128-2.781.908-2.254,1.417-3.509.981-2.428,1.417-3.523.806-2.038,1.11-2.828.49-1.28.563-1.469a.947.947,0,0,1,.527-.554,2.084,2.084,0,0,1,.854-.222,1.706,1.706,0,0,1,.728.111.314.314,0,0,1,.18.443l-.872,2.116a12.027,12.027,0,0,1,1.746-1.786,4,4,0,0,1,1.78-.9,2.053,2.053,0,0,1,1.6.27,1.787,1.787,0,0,1,.654,1.232,4.926,4.926,0,0,1-.162,1.866,11.25,11.25,0,0,1-.819,2.165,11.384,11.384,0,0,1-1.344,2.1,9.311,9.311,0,0,1-1.746,1.691,8.24,8.24,0,0,0,2.528-1.137,9.594,9.594,0,0,0,2.272-2.118" transform="translate(-956.066 -188.187)" fill="#fff"/>
      <path id="Path_88" data-name="Path 88" d="M1041.547,226.38a1.594,1.594,0,0,1,1.453.76l.036-.032a1.08,1.08,0,0,1,.6-.506,2.3,2.3,0,0,1,.818-.157,1.153,1.153,0,0,1,.654.173.353.353,0,0,1,.109.49c-.124.232-.3.622-.527,1.169s-.474,1.139-.728,1.771-.492,1.242-.71,1.832-.375,1.022-.472,1.3l-.274.774a3.411,3.411,0,0,0-.163.617.506.506,0,0,0,.091.411.553.553,0,0,0,.454.157,2.6,2.6,0,0,0,1.582-.76,8.642,8.642,0,0,0,1.618-1.864q.4-.536.672-.425c.182.073.175.3-.018.679a6.374,6.374,0,0,1-.981,1.344,11.431,11.431,0,0,1-1.437,1.31,8.046,8.046,0,0,1-1.636.98,3.848,3.848,0,0,1-1.544.379c-.606,0-.983-.173-1.128-.522a2.116,2.116,0,0,1-.071-1.248,9.109,9.109,0,0,1-1.891,1.342,3.868,3.868,0,0,1-1.782.492,1.645,1.645,0,0,1-1.2-.427,2.136,2.136,0,0,1-.581-1.139,4.127,4.127,0,0,1,.054-1.659,8.377,8.377,0,0,1,.745-2.022,11.6,11.6,0,0,1,1.309-2.024,11.794,11.794,0,0,1,1.618-1.659,8.386,8.386,0,0,1,1.709-1.123,3.749,3.749,0,0,1,1.62-.411m-1.019,6.986q.617-1.518,1.164-2.971t.945-2.4a1.167,1.167,0,0,0-1.056-.82,2.361,2.361,0,0,0-1.089.3,5.489,5.489,0,0,0-1.164.82,7.371,7.371,0,0,0-1.09,1.233,8.643,8.643,0,0,0-.874,1.532,5.17,5.17,0,0,0-.6,2.814q.164,1.169,1.144,1.2a2.159,2.159,0,0,0,1.183-.332,5.781,5.781,0,0,0,1.253-1Z" transform="translate(-950.023 -188.196)" fill="#fff"/>
      <path id="Path_89" data-name="Path 89" d="M1044.262,231.254c.436-.633.89-1.237,1.364-1.818a15.981,15.981,0,0,1,1.435-1.548,8.063,8.063,0,0,1,1.4-1.074,2.511,2.511,0,0,1,1.255-.4c.654,0,1.022.216,1.108.647a3.221,3.221,0,0,1-.2,1.612,15.3,15.3,0,0,1-.908,2.086q-.582,1.124-1.019,2.086a6.245,6.245,0,0,0-.527,1.612c-.059.433.129.647.565.647a2.594,2.594,0,0,0,1.58-.758,8.79,8.79,0,0,0,1.62-1.864c.266-.359.49-.5.672-.427s.175.3-.018.679a6.451,6.451,0,0,1-.981,1.344,11.412,11.412,0,0,1-1.437,1.31,7.917,7.917,0,0,1-1.636.98,3.852,3.852,0,0,1-1.546.381q-.909,0-1.073-.617a3.22,3.22,0,0,1,.055-1.534,10.834,10.834,0,0,1,.71-1.991c.327-.715.622-1.378.89-1.991a9.331,9.331,0,0,0,.545-1.532c.1-.411.011-.617-.256-.617-.216,0-.551.211-1,.633a13.543,13.543,0,0,0-1.435,1.627,24.541,24.541,0,0,0-1.509,2.229,20.514,20.514,0,0,0-1.255,2.4l-.145.284v.03l-.183.381a1.068,1.068,0,0,1-.6.5,2.334,2.334,0,0,1-.835.159,1.266,1.266,0,0,1-.674-.159c-.17-.1-.193-.273-.073-.5.073-.147.2-.449.382-.9s.4-.985.654-1.6.522-1.264.8-1.959.54-1.359.783-1.991.454-1.185.636-1.659.309-.806.383-1a.711.711,0,0,1,.49-.443,2,2,0,0,1,.781-.095,1.722,1.722,0,0,1,.692.19c.193.105.254.243.181.411Z" transform="translate(-945.577 -188.17)" fill="#fff"/>
      <path id="Path_90" data-name="Path 90" d="M1046.78,234.66q.4-.981.78-1.961t.709-1.816q.327-.839.581-1.485a10.721,10.721,0,0,1,.436-1,1.074,1.074,0,0,1,.618-.5,2.458,2.458,0,0,1,.837-.159,1.045,1.045,0,0,1,.635.175.354.354,0,0,1,.091.488c-.1.232-.261.622-.49,1.171s-.474,1.137-.728,1.77-.5,1.244-.728,1.832-.391,1.023-.49,1.3-.182.533-.255.774a4.719,4.719,0,0,0-.145.617.506.506,0,0,0,.091.411.553.553,0,0,0,.454.157,2.649,2.649,0,0,0,1.564-.758,8.469,8.469,0,0,0,1.635-1.864c.243-.358.454-.5.636-.427s.175.3-.018.679a6.7,6.7,0,0,1-.964,1.344,10.541,10.541,0,0,1-1.418,1.312,8.08,8.08,0,0,1-1.637.98,3.869,3.869,0,0,1-1.545.379,1.237,1.237,0,0,1-1-.333,1.274,1.274,0,0,1-.274-.837,3.554,3.554,0,0,1,.2-1.106c.134-.4.272-.779.42-1.137m5.926-8.788a1.078,1.078,0,0,1-.384.822,1.37,1.37,0,0,1-.962.347,1.322,1.322,0,0,1-.928-.347,1.081,1.081,0,0,1-.382-.822,1.033,1.033,0,0,1,.382-.806,1.368,1.368,0,0,1,.928-.331,1.419,1.419,0,0,1,.962.331,1.03,1.03,0,0,1,.384.806" transform="translate(-940.786 -189.491)" fill="#fff"/>
      <path id="Path_91" data-name="Path 91" d="M1058.756,232.524q.434-.536.69-.411t-.071.663a8.505,8.505,0,0,1-1.037,1.407,8.292,8.292,0,0,1-1.455,1.28,7.719,7.719,0,0,1-1.782.917,5.987,5.987,0,0,1-2.054.349,4.023,4.023,0,0,1-1.509-.286,3.072,3.072,0,0,1-1.891-2.2,3.872,3.872,0,0,1,.055-1.848,7.758,7.758,0,0,1,.728-1.943,8.722,8.722,0,0,1,2.835-3.16,5.5,5.5,0,0,1,1.818-.806,3.079,3.079,0,0,1,2.254.173,1.355,1.355,0,0,1,.691,1.485,4.776,4.776,0,0,1-1.509,2.37,16.769,16.769,0,0,1-4.345,2.86,2.464,2.464,0,0,0,1.273,1.312,3.277,3.277,0,0,0,1.891.238,4.02,4.02,0,0,0,1.945-.871,12.888,12.888,0,0,0,1.473-1.532m-6.8-1.391a3.593,3.593,0,0,0,0,1.612,9.037,9.037,0,0,0,3.017-2.1,3.663,3.663,0,0,0,.946-1.85,1.209,1.209,0,0,0-.436-1.167,1.034,1.034,0,0,0-1.126-.1,3.331,3.331,0,0,0-1.6,1.469,7.08,7.08,0,0,0-.8,2.134" transform="translate(-938.109 -188.209)" fill="#fff"/>
      <path id="Path_92" data-name="Path 92" d="M1058.942,226.7a1.848,1.848,0,0,1,.781-.284,2.978,2.978,0,0,1,.8-.016.935.935,0,0,1,.472.159c.084.073.03.163-.163.268a1.013,1.013,0,0,0-.563.585,1.524,1.524,0,0,0,.016.774,5.666,5.666,0,0,0,.365,1c.168.368.327.763.474,1.185a7.056,7.056,0,0,1,.345,2.481,4.29,4.29,0,0,1-.674,2.2,10.332,10.332,0,0,0,2.619-2.529c.266-.336.5-.468.69-.4s.182.29-.036.649a8.3,8.3,0,0,1-1.673,1.927,9.551,9.551,0,0,1-1.671,1.139,7.829,7.829,0,0,1-2.292.79,7.164,7.164,0,0,1-1.527.157,3.162,3.162,0,0,1-1.764-.442,2.412,2.412,0,0,1-.944-1.107,2.947,2.947,0,0,1-.2-1.423,3.485,3.485,0,0,1,.454-1.421,3.313,3.313,0,0,1,1.037-1.107,2.658,2.658,0,0,1,1.526-.443.741.741,0,0,1,.655.316,1.426,1.426,0,0,1,.254.7,1.547,1.547,0,0,1-.072.679c-.073.2-.17.3-.291.3a2.109,2.109,0,0,0-1.491.506,2,2,0,0,0-.654,1.123,1.347,1.347,0,0,0,1.491,1.627,1.76,1.76,0,0,0,1.273-.49,2.761,2.761,0,0,0,.728-1.232,5.563,5.563,0,0,0,.2-1.661,6.648,6.648,0,0,0-.273-1.77q-.218-.759-.454-1.375a5.144,5.144,0,0,1-.309-1.137,1.566,1.566,0,0,1,.872-1.723" transform="translate(-934.626 -188.198)" fill="#fff"/>
      <rect id="Rectangle_23" data-name="Rectangle 23" width="33.107" height="1.534" transform="translate(5.688 40.172)" fill="#fff"/>
      <rect id="Rectangle_24" data-name="Rectangle 24" width="33.107" height="1.534" transform="translate(133.053 40.172)" fill="#fff"/>
    </g>
  </g>
</svg>
